# xmcd
#
# Track frame offsets:
#	150
#	14277
#	29505
#	42382
#	68697
#	89632
#	105255
#	120872
#	135567
#	151772
#	171047
#	183385
#	204597
#	221557
#	236757
#	252980
#
# Disc length: 3588 seconds
#
# Revision: 0
# Processed by: cddbd v1.4PL0 Copyright (c) Steve Scherf et al.
# Submitted via: dBpowerAMP V4.0
#
DISCID=d20e0210
DTITLE=Carroll Brown - Roots and Wings
DYEAR=1996
DGENRE=Country
TTITLE0=Roots And Wings
TTITLE1=Ol' Blue
TTITLE2=Love Is A Labor
TTITLE3=Roseville Fair
TTITLE4=The Last Thing On My Mind
TTITLE5=The City
TTITLE6=Carolina Moon
TTITLE7=Footloose And Nancy Free
TTITLE8=Southern Pine
TTITLE9=Do It Again
TTITLE10=Man In My Mirror
TTITLE11=Country Boy
TTITLE12=Gone At Last
TTITLE13=Nothing Like Coming Home
TTITLE14=Daddy's Girl
TTITLE15=Homegrown Love
EXTD=
EXTT0=
EXTT1=
EXTT2=
EXTT3=
EXTT4=
EXTT5=
EXTT6=
EXTT7=
EXTT8=
EXTT9=
EXTT10=
EXTT11=
EXTT12=
EXTT13=
EXTT14=
EXTT15=
PLAYORDER=
